# xmcd
#
# Track frame offsets: 
#        150
#        16786
#        36295
#        50043
#        68988
#        83706
#        100266
#        123766
#        149822
#        169599
#        183047
#        200132
#
# Disc length: 2951 seconds
#
# Revision: 3
# Processed by: cddbd v1.5.2PL0 Copyright (c) Steve Scherf et al.
# Submitted via: ExactAudioCopy v0.99pb5
#
DISCID=a50b850c
DTITLE=George Thorogood And The Destroyers - The Dirty Dozen
DYEAR=2009
DGENRE=Rock
TTITLE0=Tail Dragger
TTITLE1=Drop Down Mama
TTITLE2=Run Myself Out Of Town
TTITLE3=Born Lover
TTITLE4=Twenty Dollar Gig
TTITLE5=Let Me Pass
TTITLE6=Howlin' For My Baby
TTITLE7=Highway 49
TTITLE8=Six Days On The Road
TTITLE9=Treat Her Right [Single Version]
TTITLE10=Hello Little Girl
TTITLE11=Blue Highway
EXTD=(p) and (c) 2009\nCapitol 509996 84082 20\n\nGeorge Thorogood: Guit
EXTD=ar, vocals\nJeff Simon: Drums\nBill Blough: Bass\nJim Suhler: Gui
EXTD=tar\nBilly Leach: Sax\n\nHank Carter: Sax on tracks 7, 8, 9, 10, 
EXTD=11, 12\nSteve Chrismar: Guitar on tracks 8, 9, 10, 11\nIan Stewar
EXTD=t: Piano on track 12\nJake West: Additional vocals on track 3
EXTT0=Willie Dixon
EXTT1=John Adam Estes
EXTT2=Wendell Holmes
EXTT3=McKinley Morganfield
EXTT4=Mickey Bones
EXTT5=Ellas McDaniel
EXTT6=Willie Dixon - Chester Burnett
EXTT7=Chester Burnett
EXTT8=Carl Montgomery - Earl Green
EXTT9=Roy Head - Gene Kurz
EXTT10=Chuck Berry
EXTT11=Nick Gravenites - David Getz
PLAYORDER=
